<svg xmlns="http://www.w3.org/2000/svg" viewBox="0 0 1024 1024" width="1024" height="1024">
  <defs><radialGradient id="bg" cx="50%" cy="38%" r="75%"><stop offset="0" stop-color="#1B2436"/><stop offset="1" stop-color="#0A0E17"/></radialGradient></defs>
  <rect width="1024" height="1024" fill="url(#bg)"/>
  <path class="arc a0" d="M424.3 225.1A300 300 0 0 1 599.7 225.1" stroke="#8B5CF6" stroke-width="96" stroke-linecap="round" fill="none"/>
  <path class="arc a1" d="M716.6 292.6A300 300 0 0 1 804.3 444.5" stroke="#10B981" stroke-width="96" stroke-linecap="round" fill="none"/>
  <path class="arc a2" d="M804.3 579.5A300 300 0 0 1 716.6 731.4" stroke="#EC4899" stroke-width="96" stroke-linecap="round" fill="none"/>
  <path class="arc a3" d="M599.7 798.9A300 300 0 0 1 424.3 798.9" stroke="#F59E0B" stroke-width="96" stroke-linecap="round" fill="none"/>
  <path class="arc a4" d="M307.4 731.4A300 300 0 0 1 219.7 579.5" stroke="#3B82F6" stroke-width="96" stroke-linecap="round" fill="none"/>
  <path class="arc a5" d="M219.7 444.5A300 300 0 0 1 307.4 292.6" stroke="#14B8A6" stroke-width="96" stroke-linecap="round" fill="none"/>
  <path d="M404 520L480 596L632 440" stroke="#FFFFFF" stroke-width="80" stroke-linecap="round" stroke-linejoin="round" fill="none"/>
</svg>